/* XPM */
static char * exo16x16_xpm[] = {
"16 16 146 2",
"  	c None",
". 	c #5E5E5E",
"+ 	c #474747",
"@ 	c #4B4B4B",
"# 	c #484848",
"$ 	c #5D5D5D",
"% 	c #565656",
"& 	c #2C2C2C",
"* 	c #2D2D2D",
"= 	c #353636",
"- 	c #333333",
"; 	c #363535",
"> 	c #575757",
", 	c #363636",
"' 	c #2B2C2C",
") 	c #313132",
"! 	c #303031",
"~ 	c #303030",
"{ 	c #313131",
"] 	c #313031",
"^ 	c #2C2B2C",
"/ 	c #363736",
"( 	c #4D4D4D",
"_ 	c #272727",
": 	c #2E2E2E",
"< 	c #151516",
"[ 	c #01040A",
"} 	c #2D2E2E",
"| 	c #2E2E2D",
"1 	c #262627",
"2 	c #1A1A1A",
"3 	c #2E2D2D",
"4 	c #2B2A2B",
"5 	c #202020",
"6 	c #000000",
"7 	c #945900",
"8 	c #D58B00",
"9 	c #D68C00",
"0 	c #955900",
"a 	c #010000",
"b 	c #212020",
"c 	c #2B2B2A",
"d 	c #4E4E4E",
"e 	c #1F1F1F",
"f 	c #282829",
"g 	c #282828",
"h 	c #E79000",
"i 	c #FFC100",
"j 	c #FFCE00",
"k 	c #FFC200",
"l 	c #EA9100",
"m 	c #020100",
"n 	c #292928",
"o 	c #2A2A2B",
"p 	c #262626",
"q 	c #111112",
"r 	c #945B00",
"s 	c #FFBB00",
"t 	c #FFCF00",
"u 	c #FEBB00",
"v 	c #975D00",
"w 	c #2A2A2A",
"x 	c #373737",
"y 	c #232323",
"z 	c #242424",
"A 	c #000108",
"B 	c #D88A00",
"C 	c #FFBC00",
"D 	c #FFC600",
"E 	c #1A1200",
"F 	c #DF9000",
"G 	c #000008",
"H 	c #242425",
"I 	c #242324",
"J 	c #303130",
"K 	c #212121",
"L 	c #212122",
"M 	c #D98A00",
"N 	c #FFB200",
"O 	c #FFBD00",
"P 	c #1A1100",
"Q 	c #FFB300",
"R 	c #E09000",
"S 	c #212221",
"T 	c #313232",
"U 	c #2B2B2C",
"V 	c #242423",
"W 	c #1E1E1F",
"X 	c #0D0E0E",
"Y 	c #955D00",
"Z 	c #FFA500",
"` 	c #FFA900",
" .	c #FFB400",
"..	c #FEA600",
"+.	c #995F00",
"@.	c #0D0D0E",
"#.	c #1E1E1E",
"$.	c #2B2B2B",
"%.	c #111111",
"&.	c #1B1B1B",
"*.	c #EA9200",
"=.	c #FE9F00",
"-.	c #FFA100",
";.	c #FFA000",
">.	c #FE9E00",
",.	c #ED9300",
"'.	c #050300",
").	c #1A1B1B",
"!.	c #1C1C1C",
"~.	c #070607",
"{.	c #181919",
"].	c #131213",
"^.	c #030100",
"/.	c #975C00",
"(.	c #DC8800",
"_.	c #DD8A00",
":.	c #995D00",
"<.	c #050100",
"[.	c #131312",
"}.	c #191819",
"|.	c #080808",
"1.	c #0D0D0D",
"2.	c #161616",
"3.	c #090A0A",
"4.	c #000005",
"5.	c #09090A",
"6.	c #161716",
"7.	c #171716",
"8.	c #0D0C0D",
"9.	c #090909",
"0.	c #0C0C0C",
"a.	c #161516",
"b.	c #141413",
"c.	c #141314",
"d.	c #141414",
"e.	c #0B0C0C",
"f.	c #0B0B0B",
"g.	c #0A0A0A",
"h.	c #060606",
"i.	c #0B0B0C",
"j.	c #151514",
"k.	c #111211",
"l.	c #0C0B0B",
"m.	c #050605",
"n.	c #0E0E0E",
"o.	c #0F0F0F",
"          . + @ @ # $           ",
"      % & * = - - ; * & >       ",
"    , ' ) ! ~ { ] ! ] ) ^ /     ",
"  ( _ : * * < [ [ < * } | 1 (   ",
"  2 3 4 5 6 7 8 9 0 a b c : 2   ",
"d e f g 6 h i j j k l m g n e ( ",
"- o p q r s k t t k u v q p w x ",
"x y z A B C D E E D C F G H I , ",
"J K L A M N O P P O Q R G S K T ",
"U V W X Y Z `  . .` ..+.@.#.z $.",
"& %.&.&.m *.=.-.;.>.,.'.).!.%.: ",
"  ~.&.{.].^./.(._.:.<.[.}.&.|.  ",
"  #.1.2.2.2.3.4.4.5.6.2.7.8.5   ",
"    9.0.a.b.c.d.d.d.c.2.e.f.    ",
"      g.h.i.j.%.k.d.l.m.1.      ",
"          n.h.g.g.h.o.          "};
