/* XPM */
static char * exo16_xpm[] = {
"16 16 105 2",
"  	c None",
". 	c #0E0E0E",
"+ 	c #222222",
"@ 	c #212121",
"# 	c #252525",
"$ 	c #101010",
"% 	c #202020",
"& 	c #363636",
"* 	c #343434",
"= 	c #333333",
"- 	c #121212",
"; 	c #302F2F",
"> 	c #2F3030",
", 	c #303030",
"' 	c #313131",
") 	c #313232",
"! 	c #313132",
"~ 	c #303031",
"{ 	c #2D2D2D",
"] 	c #2E2E2E",
"^ 	c #242424",
"/ 	c #0A0B0E",
"( 	c #000000",
"_ 	c #0B0B0E",
": 	c #1D1C1D",
"< 	c #2B2B2B",
"[ 	c #141414",
"} 	c #120B00",
"| 	c #BD7400",
"1 	c #FFAA00",
"2 	c #BF7700",
"3 	c #140B00",
"4 	c #141415",
"5 	c #1D1D1D",
"6 	c #0F0F0F",
"7 	c #2B2B2A",
"8 	c #292929",
"9 	c #120C00",
"0 	c #FFA500",
"a 	c #FFCF00",
"b 	c #FFCB00",
"c 	c #FFA400",
"d 	c #140E00",
"e 	c #161616",
"f 	c #1F1F1F",
"g 	c #272727",
"h 	c #07090C",
"i 	c #BE7500",
"j 	c #FFC600",
"k 	c #FFC300",
"l 	c #FCC000",
"m 	c #C57B00",
"n 	c #262525",
"o 	c #151515",
"p 	c #232423",
"q 	c #252424",
"r 	c #FFA800",
"s 	c #FFBB00",
"t 	c #FCB800",
"u 	c #FFBA00",
"v 	c #FFA700",
"w 	c #000100",
"x 	c #FFA600",
"y 	c #FFB200",
"z 	c #FCB000",
"A 	c #010200",
"B 	c #20201F",
"C 	c #050609",
"D 	c #C07800",
"E 	c #FFAB00",
"F 	c #FFA900",
"G 	c #FCA700",
"H 	c #C87E00",
"I 	c #040609",
"J 	c #201F20",
"K 	c #181818",
"L 	c #1E1F1E",
"M 	c #1C1C1C",
"N 	c #140D00",
"O 	c #FFA300",
"P 	c #FFA100",
"Q 	c #FFA200",
"R 	c #160F00",
"S 	c #1F1E1F",
"T 	c #0B0B0B",
"U 	c #191919",
"V 	c #1A1919",
"W 	c #0B0C0C",
"X 	c #140C00",
"Y 	c #C37A00",
"Z 	c #C67C00",
"` 	c #160D00",
" .	c #171617",
"..	c #171717",
"+.	c #020407",
"@.	c #161717",
"#.	c #141514",
"$.	c #151414",
"%.	c #080808",
"&.	c #131314",
"*.	c #131212",
"=.	c #141413",
"-.	c #040404",
";.	c #0D0D0D",
">.	c #010102",
"          . + @ @ # .           ",
"      $ % & * = = * & % $       ",
"    - ; > , ' ) ! ' , ~ , -     ",
"  $ { ] ] ^ / ( ( _ ^ ] ] { $   ",
"  : < < [ } | 1 1 2 3 4 < < 5   ",
"6 7 8 % 9 0 a b b a c d % 8 < e ",
"f g g h i j k l l k j m h g g n ",
"o p q ( r s t ( ( t u v w # ^ o ",
"6 @ + ( x y z ( ( z y x A + @ 6 ",
"[ B f C D E F G G F E H I f J K ",
"( L M e N O P P P P Q R e M S . ",
"  T U V W X Y Q Q Z ` W V U T   ",
"  (  .....- +.w A +.- ....@.(   ",
"    ( [ [ [ o o o o #.$.[ (     ",
"      ( %.&.*.- - - =.%.(       ",
"          ( -.%.%.;.>.          "};
