/* XPM */
static char * exo32x32_xpm[] = {
"32 32 326 2",
"  	c None",
". 	c #585858",
"+ 	c #6D6D6D",
"@ 	c #6E6E6E",
"# 	c #6C6C6C",
"$ 	c #595959",
"% 	c #7B7B7B",
"& 	c #232323",
"* 	c #1E1E1E",
"= 	c #272727",
"- 	c #303030",
"; 	c #2E2E2E",
"> 	c #2F2F2F",
", 	c #222222",
"' 	c #7A7A7A",
") 	c #424242",
"! 	c #242424",
"~ 	c #2B2B2A",
"{ 	c #2B2B2B",
"] 	c #353535",
"^ 	c #333332",
"/ 	c #333333",
"( 	c #323232",
"_ 	c #2A2A2B",
": 	c #434343",
"< 	c #676767",
"[ 	c #292929",
"} 	c #323332",
"| 	c #323233",
"1 	c #333232",
"2 	c #686868",
"3 	c #303131",
"4 	c #313131",
"5 	c #323031",
"6 	c #313032",
"7 	c #313132",
"8 	c #2E2F2F",
"9 	c #2F3030",
"0 	c #302F30",
"a 	c #2F2E2E",
"b 	c #2F2E2F",
"c 	c #292A29",
"d 	c #6B6B6B",
"e 	c #2D2D2D",
"f 	c #2E2E2D",
"g 	c #2F2F2E",
"h 	c #2D2C2C",
"i 	c #343334",
"j 	c #262626",
"k 	c #181818",
"l 	c #171817",
"m 	c #181817",
"n 	c #262625",
"o 	c #2C2C2C",
"p 	c #2E302E",
"q 	c #2E2E2F",
"r 	c #2D2D2E",
"s 	c #0E0E0E",
"t 	c #1D1C1D",
"u 	c #2C2C2D",
"v 	c #363636",
"w 	c #171717",
"x 	c #000000",
"y 	c #020100",
"z 	c #040201",
"A 	c #000001",
"B 	c #030101",
"C 	c #363536",
"D 	c #2D2E2D",
"E 	c #2E2D2C",
"F 	c #1C1C1C",
"G 	c #0C0C0C",
"H 	c #171716",
"I 	c #2C2C2B",
"J 	c #2C2B2C",
"K 	c #2A2A2A",
"L 	c #060502",
"M 	c #4E3400",
"N 	c #8D5900",
"O 	c #A86E00",
"P 	c #A96F00",
"Q 	c #8F5A00",
"R 	c #4F3600",
"S 	c #060402",
"T 	c #2B2A2A",
"U 	c #252525",
"V 	c #2B2A2B",
"W 	c #29292A",
"X 	c #402600",
"Y 	c #EC8F00",
"Z 	c #FF9800",
"` 	c #FA9F00",
" .	c #FAAF00",
"..	c #FAA000",
"+.	c #FF9700",
"@.	c #EF9000",
"#.	c #472B00",
"$.	c #2A2B2A",
"%.	c #0D0D0D",
"&.	c #959595",
"*.	c #707070",
"=.	c #292829",
"-.	c #2A2929",
";.	c #020000",
">.	c #533300",
",.	c #FFA500",
"'.	c #FEA200",
").	c #FFC100",
"!.	c #FFCE00",
"~.	c #FFCB00",
"{.	c #FFA400",
"].	c #5E3B00",
"^.	c #2A2A29",
"/.	c #1A1A1B",
"(.	c #282827",
"_.	c #282828",
":.	c #272626",
"<.	c #141414",
"[.	c #412900",
"}.	c #FFA300",
"|.	c #FF9F00",
"1.	c #FFC800",
"2.	c #FFCA00",
"3.	c #FFC900",
"4.	c #FFA100",
"5.	c #4A3100",
"6.	c #141413",
"7.	c #272627",
"8.	c #1A1B1B",
"9.	c #070707",
"0.	c #272726",
"a.	c #262726",
"b.	c #EC9500",
"c.	c #FEA100",
"d.	c #FFC500",
"e.	c #F19900",
"f.	c #060606",
"g.	c #484848",
"h.	c #111111",
"i.	c #282728",
"j.	c #252626",
"k.	c #252526",
"l.	c #252425",
"m.	c #030100",
"n.	c #4F3500",
"o.	c #FFB800",
"p.	c #FFC000",
"q.	c #FDBF00",
"r.	c #FFD200",
"s.	c #FFD100",
"t.	c #FFB700",
"u.	c #563B00",
"v.	c #242525",
"w.	c #121212",
"x.	c #4A4A4A",
"y.	c #606060",
"z.	c #1F2020",
"A.	c #131312",
"B.	c #905B00",
"C.	c #FA9E00",
"D.	c #FFBD00",
"E.	c #FFBC00",
"F.	c #FDBB00",
"G.	c #B88700",
"H.	c #FDBC00",
"I.	c #9A6300",
"J.	c #242324",
"K.	c #242425",
"L.	c #1F1F1F",
"M.	c #5F5F5F",
"N.	c #565656",
"O.	c #131213",
"P.	c #232223",
"Q.	c #121111",
"R.	c #AD7100",
"S.	c #FBA600",
"T.	c #B97C00",
"U.	c #222122",
"V.	c #131313",
"W.	c #545454",
"X.	c #212020",
"Y.	c #212222",
"Z.	c #202021",
"`.	c #FBA400",
" +	c #FFB300",
".+	c #FFB400",
"++	c #FFC400",
"@+	c #FBA500",
"#+	c #BA7C00",
"$+	c #212121",
"%+	c #222221",
"&+	c #212122",
"*+	c #131414",
"=+	c #535353",
"-+	c #1E1E1F",
";+	c #212120",
">+	c #202020",
",+	c #111010",
"'+	c #020101",
")+	c #925C00",
"!+	c #FA9D00",
"~+	c #FFB000",
"{+	c #FFAF00",
"]+	c #FDAE00",
"^+	c #B87E00",
"/+	c #FB9D00",
"(+	c #9D6500",
"_+	c #101010",
":+	c #1F201F",
"<+	c #141514",
"[+	c #030303",
"}+	c #1F1F1E",
"|+	c #1F1F20",
"1+	c #191919",
"2+	c #030200",
"3+	c #513600",
"4+	c #FF9900",
"5+	c #FFA700",
"6+	c #FFAB00",
"7+	c #FDAA00",
"8+	c #FFBB00",
"9+	c #593D00",
"0+	c #191918",
"a+	c #201E1E",
"b+	c #3F3F3F",
"c+	c #BDBDBD",
"d+	c #232322",
"e+	c #1D1D1D",
"f+	c #1E1D1E",
"g+	c #EF9700",
"h+	c #FE9B00",
"i+	c #FFA600",
"j+	c #FFA800",
"k+	c #FE9C00",
"l+	c #F49B00",
"m+	c #1D1D1E",
"n+	c #1E1E1D",
"o+	c #242323",
"p+	c #BBBBBB",
"q+	c #0B0B0B",
"r+	c #1B1C1B",
"s+	c #050401",
"t+	c #462E00",
"u+	c #FFA000",
"v+	c #FF9B00",
"w+	c #FFA200",
"x+	c #FF9A00",
"y+	c #FF9E00",
"z+	c #1C1D1C",
"A+	c #1C1B1C",
"B+	c #0C0B0B",
"C+	c #1B1B1A",
"D+	c #1B1B1B",
"E+	c #5E3A00",
"F+	c #FE9900",
"G+	c #FF9D00",
"H+	c #694300",
"I+	c #1C1B1B",
"J+	c #1B1C1C",
"K+	c #373737",
"L+	c #616161",
"M+	c #020202",
"N+	c #1A1919",
"O+	c #191A1A",
"P+	c #1A1A1A",
"Q+	c #492B00",
"R+	c #F19100",
"S+	c #FA9600",
"T+	c #FB9700",
"U+	c #FB9800",
"V+	c #F59300",
"W+	c #503000",
"X+	c #1A1A19",
"Y+	c #19191A",
"Z+	c #151414",
"`+	c #646464",
" @	c #060506",
".@	c #1B1B1C",
"+@	c #191818",
"@@	c #181919",
"#@	c #181717",
"$@	c #151516",
"%@	c #543900",
"&@	c #976000",
"*@	c #B57700",
"=@	c #B67800",
"-@	c #996200",
";@	c #573C00",
">@	c #050301",
",@	c #161616",
"'@	c #050506",
")@	c #171617",
"!@	c #171616",
"~@	c #010000",
"{@	c #0B0C0C",
"]@	c #161717",
"^@	c #474747",
"/@	c #010101",
"(@	c #131413",
"_@	c #151515",
":@	c #151615",
"<@	c #151616",
"[@	c #161615",
"}@	c #0A0B0B",
"|@	c #111212",
"1@	c #161516",
"2@	c #141314",
"3@	c #121312",
"4@	c #151415",
"5@	c #141415",
"6@	c #141515",
"7@	c #131212",
"8@	c #050505",
"9@	c #0A0A0A",
"0@	c #131314",
"a@	c #141313",
"b@	c #090A0A",
"c@	c #040404",
"d@	c #121213",
"e@	c #111112",
"f@	c #121211",
"g@	c #0E0F0E",
"h@	c #111011",
"i@	c #101111",
"j@	c #090909",
"k@	c #0F0F0F",
"                          . + @ @ # $                           ",
"                    % & * = - ; ; > = * , '                     ",
"                ) ! ~ { ] ] ^ / / ( ] ] { _ & :                 ",
"            < & [ - / ( } | | 1 | / ^ 1 ( / - [ , 2             ",
"          - { { | 3 4 4 4 4 4 4 5 6 4 7 4 4 6 ( { { 4           ",
"        - [ 8 > 9 - 9 0 - > 8 a ; > 0 9 - 0 0 - > b c -         ",
"      d e f ; ; g ; > h i j k l m k n i o p 8 8 q ; r o d       ",
"      s t o e e e u v w x y z A A B y x w C h D E D o F G       ",
"    4 H a o I J K = x L x M N O P Q R x S x = T o h o > w 4     ",
"    s U K V { W j x y X Y Z `  . ...+.@.#.x x j [ $.{ _ U %.&.  ",
"  *.m K =.[ -.4 x ;.>.,.'.).!.~.~.!.).'.{.].x x 4 c c ^.K k +   ",
"  %./.(._._.:.<.L [.}.|.!.1.2.3.3.3.3.!.|.4.5.L 6.7._._.= 8.G   ",
"  9.{ 7.0.a.{ x x b.c.2.d.d.d.d.d.d.d.d.3.c.e.x x { :.= = ~ f.  ",
"g.h.i.j.k.l.* m.n.Z o.p.).).q.r.s.q.).).p.t.+.u.m.* v.U U (.w.x.",
"y.z.& ! ! & A.B B.C.D.E.D.F.G.x x G.H.E.E.D.C.I.A A.J.K.! J.L.M.",
"N.O., P.& , Q.A R.S.t.o.o.3.x y y x 3.o.o.t.S.T.A h., & & U.V.W.",
"N.V.X.Y., Z.h.A R.`. + +.+++x y y x d..+ + +@+#+A h.$+%+&+$+*+N.",
"=+<.-+;+>+z.,+'+)+!+~+{+{+]+^+x x ^+]+{+~+~+/+(+A _+:+z.Z.L.<+W.",
": [+& }+|+-+1+2+3+4+5+6+6+6+7+8+8+7+6+6+6+5+Z 9+m.0+-+a+L.& [+b+",
"c+x d+* e+f+$+x x g+h+5+5+i+i+i+5+5+5+i+j+k+l+x x $+m+n+* o+x p+",
"  x q+F t F r+s s+t+u+v+}.}.w+}.w+w+w+}.x+y+3+s+s r+t z+A+B+x   ",
"  / 9.F C+8.D+Z.x x E+w+F+G+y+y+y+y+G+F+4.H+x x >+8.I+D+J+9.K+  ",
"  L+M+<.N+O+P+1+w x x Q+R+Z S+T+U+S+Z V+W+x x w 1+N+X+Y+Z+M+`+  ",
"    h. @.@+@@@k #@$@x s+x %@&@*@=@-@;@x >@x ,@w k @@1+D+'@,@    ",
"    : M+q+,@)@w w !@A+G x 2+~@x x x 2+x {@F ]@w w m ,@q+M+^@    ",
"      D+/@(@_@,@:@<@[@_@k w.q+}@}@q+|@+@_@[@,@[@1@:@2@/@*       ",
"        [+x 3@V.4@4@Z+<.4@6.<+<.<.<.5@6@Z+6@<._@*+7@x 8@        ",
"          [+x 9@_@V.V.V.V.0@0@a@V.a@V.6.V.O.0@[@b@x 8@          ",
"            %./@c@s d@e@w.w.w.w.f@d@|@f@w.7@g@c@/@h.            ",
"              h.s x c@9.<.V._+h@i@_+V.<.9.c@x G ,@              ",
"                F V.%./@x x 9@j@j@9@x x /@k@V.e+                ",
"                      e+P+f.9@9@j@q+9@_@F                       "};
