/* XPM */
static char * exo32_xpm[] = {
"32 32 290 2",
"  	c None",
". 	c #383838",
"+ 	c #0D0D0D",
"@ 	c #0E0E0E",
"# 	c #0C0C0C",
"$ 	c #444444",
"% 	c #111111",
"& 	c #1F1F1F",
"* 	c #1E1F1E",
"= 	c #353535",
"- 	c #1E1E1E",
"; 	c #0E0E0F",
"> 	c #191818",
", 	c #2F2F2F",
"' 	c #353435",
") 	c #353534",
"! 	c #323333",
"~ 	c #333333",
"{ 	c #191819",
"] 	c #0D0E0D",
"^ 	c #313131",
"/ 	c #343333",
"( 	c #323232",
"_ 	c #333334",
": 	c #303031",
"< 	c #0E0D0D",
"[ 	c #101010",
"} 	c #1D1D1D",
"| 	c #303131",
"1 	c #303130",
"2 	c #313031",
"3 	c #333434",
"4 	c #2F2F30",
"5 	c #2F302F",
"6 	c #302F2F",
"7 	c #2E2E2E",
"8 	c #333433",
"9 	c #343434",
"0 	c #323132",
"a 	c #2F3030",
"b 	c #1D1C1D",
"c 	c #1C1C1C",
"d 	c #2D2E2E",
"e 	c #2D2D2D",
"f 	c #262626",
"g 	c #0F0F0F",
"h 	c #020202",
"i 	c #040302",
"j 	c #030202",
"k 	c #10100F",
"l 	c #272627",
"m 	c #333233",
"n 	c #2D2E2D",
"o 	c #2E2F2E",
"p 	c #2E2E2F",
"q 	c #303030",
"r 	c #2C2C2D",
"s 	c #2C2D2D",
"t 	c #2C2C2C",
"u 	c #252525",
"v 	c #000000",
"w 	c #010100",
"x 	c #2D2C2C",
"y 	c #2D2D2C",
"z 	c #2B2B2A",
"A 	c #2C2B2C",
"B 	c #2C2C2B",
"C 	c #2B2B2B",
"D 	c #0B0C0B",
"E 	c #000002",
"F 	c #0C0900",
"G 	c #AB6C00",
"H 	c #E18600",
"I 	c #E98A00",
"J 	c #EA8A00",
"K 	c #E28600",
"L 	c #AD6E00",
"M 	c #100B00",
"N 	c #2B2C2B",
"O 	c #2B2C2C",
"P 	c #2B2A2A",
"Q 	c #171617",
"R 	c #2A2A2A",
"S 	c #0B0B0B",
"T 	c #A86500",
"U 	c #FF9C00",
"V 	c #FF9700",
"W 	c #FAAE00",
"X 	c #FBC000",
"Y 	c #AD6800",
"Z 	c #2A2B2A",
"` 	c #2A2A2B",
" .	c #2A2B2B",
"..	c #2C2B2B",
"+.	c #171717",
"@.	c #2A2929",
"#.	c #292929",
"$.	c #282828",
"%.	c #212221",
"&.	c #C07400",
"*.	c #FEB300",
"=.	c #FFCB00",
"-.	c #FFCE00",
";.	c #FF9600",
">.	c #C77900",
",.	c #222222",
"'.	c #292A2A",
").	c #282929",
"!.	c #000001",
"~.	c #A86900",
"{.	c #FFB200",
"].	c #FFC800",
"^.	c #FFC900",
"/.	c #FFCC00",
"(.	c #AF6E00",
"_.	c #000100",
":.	c #282728",
"<.	c #191919",
"[.	c #262726",
"}.	c #252526",
"|.	c #202020",
"1.	c #0D0B00",
"2.	c #FF9E00",
"3.	c #FEAF00",
"4.	c #FFC700",
"5.	c #FFC500",
"6.	c #FFC400",
"7.	c #FFAF00",
"8.	c #FF9F00",
"9.	c #161200",
"0.	c #262526",
"a.	c #181818",
"b.	c #4C4C4C",
"c.	c #272727",
"d.	c #AC6D00",
"e.	c #FFC000",
"f.	c #FEC000",
"g.	c #FFC600",
"h.	c #FFCA00",
"i.	c #FFBF00",
"j.	c #B37300",
"k.	c #272728",
"l.	c #252625",
"m.	c #272626",
"n.	c #232424",
"o.	c #242424",
"p.	c #282727",
"q.	c #020201",
"r.	c #E38700",
"s.	c #FAA800",
"t.	c #FFBE00",
"u.	c #FFBC00",
"v.	c #FFC200",
"w.	c #A27700",
"x.	c #FFC300",
"y.	c #FBA900",
"z.	c #E68A00",
"A.	c #242425",
"B.	c #272726",
"C.	c #232222",
"D.	c #232323",
"E.	c #030302",
"F.	c #EB8D00",
"G.	c #FBB100",
"H.	c #FFB700",
"I.	c #FFB800",
"J.	c #FCB100",
"K.	c #F09100",
"L.	c #010500",
"M.	c #222121",
"N.	c #212222",
"O.	c #EB8E00",
"P.	c #FBAD00",
"Q.	c #FFB300",
"R.	c #FFB400",
"S.	c #FFBD00",
"T.	c #FCAE00",
"U.	c #F09200",
"V.	c #222221",
"W.	c #252425",
"X.	c #1F2021",
"Y.	c #202120",
"Z.	c #232324",
"`.	c #E38800",
" +	c #FAA400",
".+	c #FFB000",
"++	c #FFB500",
"@+	c #A26F00",
"#+	c #FBA500",
"$+	c #E78B00",
"%+	c #202021",
"&+	c #212020",
"*+	c #242524",
"=+	c #212120",
"-+	c #212021",
";+	c #0B0A0A",
">+	c #AF6F00",
",+	c #FF9800",
"'+	c #FFAB00",
")+	c #FEAB00",
"!+	c #FFB100",
"~+	c #B67500",
"{+	c #0A0A0A",
"]+	c #212121",
"^+	c #1F1E1F",
"/+	c #1F1F1E",
"(+	c #1E1E1D",
"_+	c #010000",
":+	c #100F00",
"<+	c #FFA000",
"[+	c #FEA000",
"}+	c #FFA700",
"|+	c #FFA800",
"1+	c #FFA600",
"2+	c #FFA100",
"3+	c #1A1600",
"4+	c #404040",
"5+	c #1E1D1E",
"6+	c #AD6C00",
"7+	c #FF9A00",
"8+	c #FFA300",
"9+	c #FFA200",
"0+	c #FF9900",
"a+	c #B47200",
"b+	c #1F2020",
"c+	c #1C1C1D",
"d+	c #1D1D1C",
"e+	c #1C1B1C",
"f+	c #1B1B1B",
"g+	c #1B1C1B",
"h+	c #1A1A1A",
"i+	c #161617",
"j+	c #C77800",
"k+	c #FF9B00",
"l+	c #CE7E00",
"m+	c #161616",
"n+	c #1C1B1B",
"o+	c #1B1C1C",
"p+	c #060606",
"q+	c #070707",
"r+	c #AF6900",
"s+	c #FB9700",
"t+	c #FC9800",
"u+	c #FC9900",
"v+	c #B46C00",
"w+	c #181718",
"x+	c #191918",
"y+	c #140F00",
"z+	c #B17100",
"A+	c #E58B00",
"B+	c #EE9300",
"C+	c #E68C00",
"D+	c #B47400",
"E+	c #181000",
"F+	c #060706",
"G+	c #1D1C1C",
"H+	c #181918",
"I+	c #181717",
"J+	c #131313",
"K+	c #000400",
"L+	c #181919",
"M+	c #171817",
"N+	c #181817",
"O+	c #171818",
"P+	c #1A1A19",
"Q+	c #090909",
"R+	c #161716",
"S+	c #121212",
"T+	c #070708",
"U+	c #030301",
"V+	c #080808",
"W+	c #151515",
"X+	c #151415",
"Y+	c #151414",
"Z+	c #141515",
"`+	c #141414",
" @	c #080807",
".@	c #151616",
"+@	c #131413",
"@@	c #141314",
"#@	c #131414",
"$@	c #141313",
"%@	c #151615",
"&@	c #121112",
"*@	c #131212",
"=@	c #121312",
"-@	c #121213",
";@	c #121313",
">@	c #131312",
",@	c #040404",
"                        . + @ @ @ @ # $                         ",
"                  % @ @ & * . = = . & - @ ; %                   ",
"              % + > , ' ) ' ! ~ ~ ~ ) ' ) , { + %               ",
"            % ] ^ / ( ( ( ( ( ( ( ( ( ( ( ( _ : < %             ",
"          [ } / ^ | ^ 1 2 2 : 1 2 : ^ 2 1 2 ^ ^ 3 } [           ",
"        [ } ~ , 4 , 5 6 7 ( 3 / 8 9 0 7 a , 4 a 5 / b [         ",
"      % c ( d 7 7 7 e ~ f g h i i j k l m n o o p 7 ( c %       ",
"    % @ q r e s t , u v v v v v v v v v w u , x e y e a @ %     ",
"    @ z A B B C ( D v E F G H I J K L M E v D ( N A O t P @     ",
"  % Q O R R R r S v v T U V W X X W V U Y v v S x Z `  ...+.%   ",
"  g f @.#.#.$.%.v v &.V *.=.-.=.=.-.=.*.;.>.v v ,.$.#.#.'.f @   ",
"  g ).$.$.$.t v !.~.V {.=.].^.^.^.].^./.{.;.(.!._.t $.$.:.#.g   ",
". <.$.l [.}.|.v 1.2.3.4.5.5.6.6.5.5.5.6.4.7.8.9.v |.0.[.l $.a.b.",
"+ <.f u }.c.+ v d.V e.e.e.f.g.=.h.4.f.e.e.i.V j.v + k.u l.m.<.S ",
"[ c.n.o.o.p.q.v r.s.t.u.u.v.w.v v w.x.u.u.t.y.z.v q.:.A.o.A.B.[ ",
"v 0.C.D.,.f E._.F.G.H.I.I.v.v     v v.I.I.H.J.K.L.i f D.D.D.}.v ",
"v o.M.N.,.A.E._.O.P.Q.Q.R.S.v     v t.R.R.Q.T.U.L.i u V.M.N.o.v ",
"v W.X.|.Y.Z.q.v `. +.+7.7.++@+v v @+++7..+.+#+$+v q.D.|.%+&+*+v ",
"v # =+& & -+;+v >+,+'+'+'+)+!+++++!+)+'+'+'+V ~+v {+]+^+/+%++ v ",
"= S & - (+b <._+:+<+[+}+|+}+1+1+}+}+}+1+|+<+2+3+v <.b - - & {+4+",
"  v 5+} } c |.v !.6+7+8.8+8+8+8+9+9+9+8+2.0+a+!.w b+} c+d+5+v   ",
"  v a.e+f+g+h+i+v v j+k+U 2.2.8.8.8.2.U k+l+v v m+h+n+f+o+a.v   ",
"  v p+f+h+h+h+f+q+v v r+8.,+s+t+u+s+,+8.v+v v q+f+h+h+h+f+p+v   ",
"    v w+<.x+<.> c p+v !.y+z+A+B+B+C+D+E+!.v F+G+H+<.<.<.w+v     ",
"    v v h++.I++.+.> J+_+_+v v K+K+v v _+w J+L+M+a.N+O+P+v v     ",
"      v Q+<.m+m+R+m+m+<.S+T+q.U+U+q.q+S+L+m+m+R+m+m+<.Q+v       ",
"        v V+a.W+X+W+Y+Z+`+R++.+.+.+.m+Y+W+W+W+W+Z+a.V+v         ",
"          v  @.@`+`++@`++@@@`+`+`+@@@@`+#@$@`+`+%@V+v           ",
"            v v &@J+J+*@=@S+*@-@S+;@-@*@>@>@+@S+v v             ",
"              v v ,@g S+S+S+% % % % S+S+S+g ,@v v               ",
"                  v v v V+q+J+S+S+J+p+V+v v v                   ",
"                          v v v v v @                           "};
